<svg width="31" height="40" viewBox="0 0 31 40" fill="none" xmlns="http://www.w3.org/2000/svg">
<path d="M15.4989 0.310303C6.98866 0.310303 0.0627441 7.23622 0.0627441 15.7465C0.0627441 23.9625 13.8995 38.5537 14.488 39.1724C14.752 39.4515 15.1217 39.61 15.5065 39.61C15.514 39.61 15.5291 39.61 15.5367 39.61C15.929 39.61 16.3062 39.4289 16.5627 39.1271L21.3535 33.6422C27.7211 25.8487 30.9427 19.8281 30.9427 15.754C30.9427 7.23622 24.0167 0.310303 15.4989 0.310303ZM15.4989 22.7629C11.621 22.7629 8.48248 19.6244 8.48248 15.7465C8.48248 11.8686 11.621 8.73004 15.4989 8.73004C19.3768 8.73004 22.5154 11.8686 22.5154 15.7465C22.5154 19.6244 19.3768 22.7629 15.4989 22.7629Z" fill="#1CB603"/>
</svg>
