<?xml version="1.0" encoding="UTF-8"?>
<svg width="61px" height="61px" viewBox="0 0 61 61" version="1.1" xmlns="http://www.w3.org/2000/svg" xmlns:xlink="http://www.w3.org/1999/xlink">
    <title>编组 2</title>
    <g id="页面-1" stroke="none" stroke-width="1" fill="none" fill-rule="evenodd">
        <g id="编组" transform="translate(0.956143, 0.980000)">
            <path d="M57.6938571,47.37 L53.5738571,41.53 C53.4513485,41.3490877 53.3142231,41.1785171 53.1638571,41.02 L53.1638571,9.72 C53.1638571,7.11321598 51.0506411,5 48.4438571,5 L31.0738571,5 L19.5738571,16.1 L43.2538571,16.1 L43.2538571,25.79 L17.2538571,25.79 L17.2538571,17.52 C17.2442956,17.3356778 17.2242632,17.1520482 17.1938571,16.97 C17.380329,15.8474372 17.114228,14.6967304 16.4538571,13.77 L12.3338571,7.93 C10.6194534,5.69631538 7.51845889,5.07269941 5.07385707,6.47 L4.42385707,6.84 C3.27687257,7.43449338 2.44153576,8.49422862 2.13135946,9.74833647 C1.82118317,11.0024443 2.06622683,12.3293882 2.80385707,13.39 L6.92385707,19.23 C7.05637842,19.4025136 7.20001699,19.5661947 7.35385707,19.72 L7.35385707,51.02 C7.35385707,52.2718218 7.85114136,53.4723723 8.73631307,54.357544 C9.62148477,55.2427157 10.8220352,55.74 12.0738571,55.74 L29.4238571,55.74 L40.9238571,44.65 L17.3038571,44.65 L17.3038571,34.49 L43.3038571,34.49 L43.3038571,43.24 C43.2935388,43.4231882 43.2935388,43.6068118 43.3038571,43.79 C43.1217955,44.9124204 43.3875112,46.0614613 44.0438571,46.99 L48.1638571,52.84 C49.881129,55.0702288 52.9816438,55.6894776 55.4238571,54.29 L56.0738571,53.92 C57.2208416,53.3255066 58.0561784,52.2657714 58.3663547,51.0116635 C58.676531,49.7575557 58.4314873,48.4306118 57.6938571,47.37 L57.6938571,47.37 Z" id="路径" fill="#265BA9" fill-rule="nonzero"></path>
            <rect id="矩形" x="0" y="0" width="60" height="60"></rect>
        </g>
    </g>
</svg>