<svg width="31" height="40" viewBox="0 0 31 40" fill="none" xmlns="http://www.w3.org/2000/svg">
<path d="M15.4868 0.383301C6.97657 0.383301 0.0506592 7.30921 0.0506592 15.8195C0.0506592 24.0355 13.8874 38.6267 14.4759 39.2454C14.7399 39.5245 15.1096 39.683 15.4944 39.683C15.5019 39.683 15.517 39.683 15.5246 39.683C15.9169 39.683 16.2941 39.5019 16.5506 39.2001L21.3414 33.7152C27.709 25.9217 30.9306 19.9011 30.9306 15.827C30.9306 7.30921 24.0047 0.383301 15.4868 0.383301ZM15.4868 22.8359C11.6089 22.8359 8.4704 19.6974 8.4704 15.8195C8.4704 11.9416 11.6089 8.80304 15.4868 8.80304C19.3648 8.80304 22.5033 11.9416 22.5033 15.8195C22.5033 19.6974 19.3648 22.8359 15.4868 22.8359Z" fill="#D81E06"/>
</svg>
